<?xml version="1.0" encoding="UTF-8" standalone="no"?>
<!DOCTYPE svg PUBLIC "-//W3C//DTD SVG 1.1//EN" "http://www.w3.org/Graphics/SVG/1.1/DTD/svg11.dtd">
<svg width="100%" height="100%" viewBox="0 0 276 719" version="1.1" xmlns="http://www.w3.org/2000/svg" xmlns:xlink="http://www.w3.org/1999/xlink" xml:space="preserve" xmlns:serif="http://www.serif.com/" style="fill-rule:evenodd;clip-rule:evenodd;stroke-linecap:round;stroke-linejoin:round;stroke-miterlimit:10;">
    <g transform="matrix(0.32,0,0,0.32,0,0)">
        <g id="labels" transform="matrix(4.16667,0,0,4.16667,0,0)">
            <g transform="matrix(1,0,0,1,143.258,391.63)">
                <path d="M0,-32.776L-1.695,-31.081L-3.391,-32.776L-3.391,-34.216L-1.695,-32.519L0,-34.216L0,-32.776ZM-1.695,-0.916C-1.42,-0.916 -1.195,-0.692 -1.195,-0.416L-1.195,0.084C-1.195,0.361 -1.42,0.584 -1.695,0.584C-1.972,0.584 -2.195,0.361 -2.195,0.084L-2.195,-0.416C-2.195,-0.692 -1.972,-0.916 -1.695,-0.916M-2.195,-4.916L-2.195,-5.416C-2.195,-5.692 -1.972,-5.916 -1.695,-5.916C-1.42,-5.916 -1.195,-5.692 -1.195,-5.416L-1.195,-4.916C-1.195,-4.639 -1.42,-4.416 -1.695,-4.416C-1.972,-4.416 -2.195,-4.639 -2.195,-4.916M-1.695,-3.416C-1.42,-3.416 -1.195,-3.192 -1.195,-2.916L-1.195,-2.416C-1.195,-2.139 -1.42,-1.916 -1.695,-1.916C-1.972,-1.916 -2.195,-2.139 -2.195,-2.416L-2.195,-2.916C-2.195,-3.192 -1.972,-3.416 -1.695,-3.416M0,1.474L-1.695,3.169L-3.391,1.474L-3.391,0.034L-1.695,1.731L0,0.034L0,1.474ZM-2.195,-34.667C-2.195,-34.943 -1.972,-35.167 -1.695,-35.167C-1.42,-35.167 -1.195,-34.943 -1.195,-34.667L-1.195,-34.167C-1.195,-33.89 -1.42,-33.667 -1.695,-33.667C-1.972,-33.667 -2.195,-33.89 -2.195,-34.167L-2.195,-34.667ZM-2.195,-37.167C-2.195,-37.443 -1.972,-37.667 -1.695,-37.667C-1.42,-37.667 -1.195,-37.443 -1.195,-37.167L-1.195,-36.667C-1.195,-36.39 -1.42,-36.167 -1.695,-36.167C-1.972,-36.167 -2.195,-36.39 -2.195,-36.667L-2.195,-37.167ZM-2.195,-39.667C-2.195,-39.943 -1.972,-40.167 -1.695,-40.167C-1.42,-40.167 -1.195,-39.943 -1.195,-39.667L-1.195,-39.167C-1.195,-38.89 -1.42,-38.667 -1.695,-38.667C-1.972,-38.667 -2.195,-38.89 -2.195,-39.167L-2.195,-39.667ZM10.203,-66.608L-13.605,-66.608C-15.164,-66.608 -16.439,-65.333 -16.439,-63.773L-16.439,30.997C-16.439,32.557 -15.164,33.832 -13.605,33.832L10.203,33.832C11.763,33.832 13.038,32.557 13.038,30.997L13.038,-63.773C13.038,-65.333 11.763,-66.608 10.203,-66.608" style="fill:rgb(108,110,112);fill-rule:nonzero;"/>
            </g>
            <g transform="matrix(-1,0,0,1,237.201,325.366)">
                <rect x="80.367" y="105.608" width="76.467" height="2" style="fill:rgb(187,189,192);"/>
            </g>
            <g transform="matrix(-1,0,0,1,237.201,97.456)">
                <rect x="80.367" y="219.563" width="76.467" height="2" style="fill:rgb(187,189,192);"/>
            </g>
            <g transform="matrix(-1,0,0,1,238.205,-302.916)">
                <rect x="76.531" y="420.249" width="85.143" height="1" style="fill:rgb(187,189,192);"/>
            </g>
            <g transform="matrix(-1,0,0,1,238.205,-288.146)">
                <rect x="76.531" y="412.864" width="85.143" height="1" style="fill:rgb(187,189,192);"/>
            </g>
            <g transform="matrix(1,0,0,1,78.7344,124.225)">
                <path d="M0,-5.42C0.125,-5.283 0.243,-5.137 0.377,-5.014C0.791,-4.645 1.213,-4.287 1.625,-3.916C1.908,-3.662 2.18,-3.393 2.451,-3.127C2.495,-3.086 2.533,-3.037 2.568,-2.988C2.705,-2.811 2.709,-2.752 2.559,-2.586C2.367,-2.375 2.156,-2.18 1.956,-1.977C1.687,-1.705 1.422,-1.432 1.154,-1.16C0.789,-0.785 0.422,-0.41 0.053,-0.039C0.033,-0.018 -0.004,-0.002 -0.031,-0.002C-0.365,0 -0.699,0 -1.057,0C-0.991,-0.102 -0.947,-0.199 -0.881,-0.277C-0.689,-0.508 -0.496,-0.744 -0.281,-0.953C0.137,-1.363 0.516,-1.813 0.986,-2.166C1.195,-2.324 1.359,-2.549 1.557,-2.754C1.418,-2.885 1.293,-3.01 1.163,-3.127C0.801,-3.449 0.432,-3.762 0.105,-4.125C-0.137,-4.393 -0.418,-4.625 -0.678,-4.877C-0.809,-5.006 -0.937,-5.139 -1.058,-5.275C-1.092,-5.313 -1.105,-5.371 -1.123,-5.42L0,-5.42Z" style="fill:rgb(187,189,192);"/>
            </g>
            <g transform="matrix(1,0,0,1,80.6563,124.225)">
                <path d="M0,-5.42C0.123,-5.283 0.241,-5.137 0.379,-5.014C0.791,-4.645 1.215,-4.287 1.623,-3.916C1.906,-3.662 2.18,-3.393 2.453,-3.127C2.494,-3.086 2.531,-3.037 2.57,-2.988C2.703,-2.811 2.711,-2.752 2.56,-2.586C2.367,-2.375 2.157,-2.18 1.954,-1.977C1.688,-1.705 1.42,-1.432 1.154,-1.16C0.787,-0.785 0.42,-0.41 0.051,-0.039C0.031,-0.018 -0.004,-0.002 -0.031,-0.002C-0.365,0 -0.701,0 -1.057,0C-0.99,-0.102 -0.945,-0.199 -0.881,-0.277C-0.686,-0.508 -0.498,-0.744 -0.281,-0.953C0.135,-1.363 0.514,-1.813 0.986,-2.166C1.197,-2.324 1.361,-2.549 1.557,-2.754C1.418,-2.885 1.295,-3.01 1.164,-3.127C0.803,-3.449 0.432,-3.762 0.105,-4.125C-0.137,-4.393 -0.418,-4.625 -0.678,-4.877C-0.811,-5.006 -0.936,-5.139 -1.059,-5.275C-1.09,-5.313 -1.102,-5.371 -1.123,-5.42L0,-5.42Z" style="fill:rgb(187,189,192);"/>
            </g>
            <g transform="matrix(1,0,0,1,82.5762,124.225)">
                <path d="M0,-5.42C0.127,-5.283 0.244,-5.137 0.383,-5.014C0.793,-4.645 1.217,-4.287 1.627,-3.916C1.91,-3.662 2.178,-3.393 2.451,-3.127C2.498,-3.086 2.535,-3.037 2.57,-2.988C2.707,-2.811 2.714,-2.752 2.563,-2.586C2.367,-2.375 2.158,-2.18 1.955,-1.977C1.689,-1.705 1.426,-1.432 1.154,-1.16C0.787,-0.785 0.422,-0.41 0.053,-0.039C0.034,-0.018 -0.002,-0.002 -0.031,-0.002C-0.363,0 -0.699,0 -1.053,0C-0.99,-0.102 -0.947,-0.199 -0.881,-0.277C-0.686,-0.508 -0.494,-0.744 -0.283,-0.953C0.137,-1.363 0.514,-1.813 0.99,-2.166C1.199,-2.324 1.361,-2.549 1.556,-2.754C1.422,-2.885 1.295,-3.01 1.164,-3.127C0.801,-3.449 0.434,-3.762 0.105,-4.125C-0.137,-4.393 -0.416,-4.625 -0.676,-4.877C-0.807,-5.006 -0.934,-5.139 -1.057,-5.275C-1.09,-5.313 -1.102,-5.371 -1.121,-5.42L0,-5.42Z" style="fill:rgb(187,189,192);"/>
            </g>
            <g transform="matrix(1,0,0,1,116.044,118.826)">
                <path d="M0,5.42C0.102,5.233 0.235,5.074 0.392,4.924C0.53,4.789 0.63,4.61 0.772,4.473C1.192,4.063 1.567,3.61 2.046,3.252C2.257,3.094 2.417,2.871 2.614,2.666C2.476,2.533 2.351,2.41 2.218,2.293C1.858,1.971 1.489,1.656 1.163,1.295C0.921,1.027 0.64,0.795 0.38,0.541C0.249,0.414 0.122,0.281 0,0.145C-0.03,0.111 -0.042,0.061 -0.071,0C0.302,0 0.65,0 1,0.002C1.026,0.004 1.058,0.025 1.081,0.045C1.511,0.443 1.937,0.844 2.367,1.24C2.616,1.471 2.882,1.686 3.133,1.92C3.319,2.098 3.495,2.289 3.663,2.485C3.767,2.61 3.747,2.672 3.65,2.801C3.434,3.088 3.15,3.303 2.897,3.551C2.669,3.774 2.458,4.008 2.235,4.235C1.892,4.588 1.542,4.94 1.192,5.293C1.157,5.33 1.133,5.377 1.102,5.42L0,5.42Z" style="fill:rgb(187,189,192);"/>
            </g>
            <g transform="matrix(1,0,0,1,117.965,118.826)">
                <path d="M0,5.42C0.102,5.233 0.238,5.074 0.393,4.924C0.533,4.789 0.629,4.61 0.77,4.473C1.191,4.063 1.57,3.61 2.045,3.252C2.26,3.094 2.42,2.871 2.617,2.666C2.477,2.533 2.352,2.41 2.221,2.293C1.859,1.971 1.49,1.656 1.164,1.295C0.922,1.027 0.643,0.795 0.381,0.541C0.248,0.414 0.123,0.281 0,0.145C-0.031,0.111 -0.041,0.061 -0.07,0C0.303,0 0.649,0 1,0.002C1.027,0.004 1.059,0.025 1.08,0.045C1.51,0.443 1.936,0.844 2.367,1.24C2.621,1.471 2.885,1.686 3.133,1.92C3.318,2.098 3.496,2.289 3.663,2.485C3.766,2.61 3.746,2.672 3.649,2.801C3.436,3.088 3.146,3.303 2.895,3.551C2.67,3.774 2.459,4.008 2.238,4.235C1.893,4.588 1.543,4.94 1.193,5.293C1.158,5.33 1.133,5.377 1.102,5.42L0,5.42Z" style="fill:rgb(187,189,192);"/>
            </g>
            <g transform="matrix(1,0,0,1,88.1914,124.225)">
                <path d="M0,-5.42C0.125,-5.283 0.242,-5.137 0.379,-5.014C0.79,-4.645 1.215,-4.287 1.625,-3.916C1.908,-3.662 2.178,-3.393 2.451,-3.127C2.494,-3.086 2.531,-3.037 2.57,-2.988C2.706,-2.811 2.711,-2.752 2.561,-2.586C2.365,-2.375 2.154,-2.18 1.954,-1.977C1.686,-1.705 1.42,-1.432 1.154,-1.16C0.79,-0.785 0.42,-0.41 0.055,-0.039C0.033,-0.018 -0.004,-0.002 -0.031,-0.002C-0.364,0 -0.699,0 -1.057,0C-0.993,-0.102 -0.945,-0.199 -0.881,-0.277C-0.684,-0.508 -0.497,-0.744 -0.28,-0.953C0.139,-1.363 0.516,-1.813 0.986,-2.166C1.199,-2.324 1.361,-2.549 1.559,-2.754C1.419,-2.885 1.295,-3.01 1.166,-3.127C0.801,-3.449 0.432,-3.762 0.105,-4.125C-0.137,-4.393 -0.417,-4.625 -0.678,-4.877C-0.811,-5.006 -0.936,-5.139 -1.06,-5.275C-1.092,-5.313 -1.102,-5.371 -1.123,-5.42L0,-5.42Z" style="fill:rgb(187,189,192);"/>
            </g>
            <g transform="matrix(1,0,0,1,90.1114,124.225)">
                <path d="M0,-5.42C0.129,-5.283 0.246,-5.137 0.381,-5.014C0.793,-4.645 1.219,-4.287 1.627,-3.916C1.912,-3.662 2.179,-3.393 2.451,-3.127C2.498,-3.086 2.535,-3.037 2.572,-2.988C2.707,-2.811 2.713,-2.752 2.563,-2.586C2.367,-2.375 2.158,-2.18 1.955,-1.977C1.689,-1.705 1.424,-1.432 1.156,-1.16C0.789,-0.785 0.422,-0.41 0.055,-0.039C0.034,-0.018 -0.001,-0.002 -0.029,-0.002C-0.361,0 -0.697,0 -1.055,0C-0.99,-0.102 -0.945,-0.199 -0.881,-0.277C-0.686,-0.508 -0.497,-0.744 -0.281,-0.953C0.141,-1.363 0.517,-1.813 0.988,-2.166C1.199,-2.324 1.361,-2.549 1.559,-2.754C1.42,-2.885 1.297,-3.01 1.167,-3.127C0.803,-3.449 0.434,-3.762 0.107,-4.125C-0.137,-4.393 -0.416,-4.625 -0.676,-4.877C-0.807,-5.006 -0.934,-5.139 -1.057,-5.275C-1.088,-5.313 -1.102,-5.371 -1.121,-5.42L0,-5.42Z" style="fill:rgb(187,189,192);"/>
            </g>
            <g transform="matrix(1,0,0,1,119.887,118.826)">
                <path d="M0,5.42C0.102,5.233 0.236,5.074 0.392,4.924C0.533,4.789 0.631,4.61 0.771,4.473C1.195,4.063 1.572,3.61 2.047,3.252C2.259,3.094 2.42,2.871 2.615,2.666C2.473,2.533 2.352,2.41 2.223,2.293C1.859,1.971 1.49,1.656 1.164,1.295C0.922,1.027 0.641,0.795 0.381,0.541C0.248,0.414 0.123,0.281 0,0.145C-0.029,0.111 -0.042,0.061 -0.07,0C0.304,0 0.65,0 0.998,0.002C1.027,0.004 1.057,0.025 1.08,0.045C1.511,0.443 1.936,0.844 2.367,1.24C2.621,1.471 2.887,1.686 3.131,1.92C3.32,2.098 3.494,2.289 3.661,2.485C3.768,2.61 3.745,2.672 3.65,2.801C3.434,3.088 3.15,3.303 2.893,3.551C2.67,3.774 2.459,4.008 2.238,4.235C1.892,4.588 1.539,4.94 1.195,5.293C1.157,5.33 1.131,5.377 1.102,5.42L0,5.42Z" style="fill:rgb(187,189,192);"/>
            </g>
            <g transform="matrix(1,0,0,1,143.594,118.826)">
                <path d="M0,5.42C-0.027,5.379 -0.05,5.334 -0.084,5.301C-0.307,5.076 -0.535,4.856 -0.754,4.629C-1.039,4.33 -1.318,4.027 -1.605,3.729C-1.693,3.635 -1.791,3.549 -1.887,3.463C-2.127,3.25 -2.367,3.039 -2.566,2.785C-2.633,2.693 -2.65,2.61 -2.584,2.52C-2.508,2.416 -2.434,2.309 -2.336,2.223C-1.832,1.762 -1.323,1.309 -0.82,0.848C-0.537,0.588 -0.264,0.317 0.016,0.053C0.035,0.029 0.072,0.004 0.102,0.004C0.451,0 0.799,0 1.18,0C1.137,0.07 1.119,0.129 1.08,0.168C0.766,0.479 0.441,0.781 0.129,1.092C-0.066,1.283 -0.242,1.492 -0.437,1.68C-0.65,1.883 -0.871,2.07 -1.086,2.266C-1.225,2.391 -1.359,2.52 -1.5,2.65C-1.482,2.678 -1.471,2.699 -1.455,2.717C-1.25,2.957 -1.027,3.178 -0.783,3.379C-0.57,3.555 -0.381,3.756 -0.184,3.951C0.053,4.192 0.287,4.434 0.52,4.68C0.666,4.836 0.81,4.998 0.943,5.166C1.006,5.242 1.049,5.334 1.102,5.42L0,5.42Z" style="fill:rgb(187,189,192);"/>
            </g>
            <g transform="matrix(1,0,0,1,154.414,118.826)">
                <path d="M0,5.42C0.1,5.233 0.232,5.074 0.389,4.924C0.529,4.789 0.629,4.61 0.766,4.473C1.189,4.063 1.566,3.61 2.045,3.252C2.256,3.094 2.416,2.871 2.611,2.666C2.473,2.533 2.348,2.41 2.217,2.293C1.859,1.971 1.489,1.656 1.16,1.295C0.916,1.027 0.637,0.795 0.377,0.541C0.246,0.414 0.121,0.281 0,0.145C-0.033,0.111 -0.045,0.061 -0.072,0C0.299,0 0.648,0 0.996,0.002C1.024,0.004 1.055,0.025 1.078,0.045C1.51,0.443 1.932,0.844 2.365,1.24C2.613,1.471 2.879,1.686 3.13,1.92C3.314,2.098 3.492,2.289 3.66,2.485C3.764,2.61 3.744,2.672 3.646,2.801C3.432,3.088 3.146,3.303 2.893,3.551C2.668,3.774 2.455,4.008 2.236,4.235C1.889,4.588 1.539,4.94 1.189,5.293C1.154,5.33 1.13,5.377 1.1,5.42L0,5.42Z" style="fill:rgb(187,189,192);"/>
            </g>
            <g transform="matrix(1,0,0,1,151.129,118.826)">
                <path d="M0,5.42C-0.027,5.379 -0.053,5.334 -0.084,5.301C-0.305,5.076 -0.535,4.856 -0.754,4.629C-1.039,4.33 -1.318,4.027 -1.604,3.729C-1.693,3.635 -1.791,3.549 -1.887,3.463C-2.127,3.25 -2.367,3.039 -2.563,2.785C-2.631,2.693 -2.65,2.61 -2.584,2.52C-2.508,2.416 -2.434,2.309 -2.336,2.223C-1.836,1.762 -1.322,1.309 -0.82,0.848C-0.537,0.588 -0.266,0.317 0.014,0.053C0.037,0.029 0.072,0.004 0.102,0.004C0.453,0 0.797,0 1.18,0C1.142,0.07 1.121,0.129 1.082,0.168C0.766,0.479 0.443,0.781 0.129,1.092C-0.062,1.283 -0.242,1.492 -0.437,1.68C-0.648,1.883 -0.871,2.07 -1.085,2.266C-1.225,2.391 -1.358,2.52 -1.5,2.65C-1.482,2.678 -1.469,2.699 -1.455,2.717C-1.252,2.957 -1.027,3.178 -0.783,3.379C-0.57,3.555 -0.377,3.756 -0.186,3.951C0.055,4.192 0.291,4.434 0.521,4.68C0.668,4.836 0.81,4.998 0.945,5.166C1.006,5.242 1.049,5.334 1.102,5.42L0,5.42Z" style="fill:rgb(187,189,192);"/>
            </g>
            <g transform="matrix(1,0,0,1,149.207,118.826)">
                <path d="M0,5.42C-0.029,5.379 -0.049,5.334 -0.084,5.301C-0.307,5.076 -0.533,4.856 -0.752,4.629C-1.037,4.33 -1.318,4.027 -1.604,3.729C-1.693,3.635 -1.793,3.549 -1.887,3.463C-2.125,3.25 -2.365,3.039 -2.563,2.785C-2.633,2.693 -2.649,2.61 -2.584,2.52C-2.51,2.416 -2.432,2.309 -2.336,2.223C-1.834,1.762 -1.326,1.309 -0.82,0.848C-0.537,0.588 -0.266,0.317 0.014,0.053C0.039,0.029 0.072,0.004 0.103,0.004C0.451,0 0.801,0 1.18,0C1.139,0.07 1.123,0.129 1.08,0.168C0.766,0.479 0.443,0.781 0.13,1.092C-0.065,1.283 -0.242,1.492 -0.437,1.68C-0.647,1.883 -0.87,2.07 -1.086,2.266C-1.227,2.391 -1.358,2.52 -1.5,2.65C-1.483,2.678 -1.471,2.699 -1.453,2.717C-1.248,2.957 -1.029,3.178 -0.783,3.379C-0.569,3.555 -0.377,3.756 -0.184,3.951C0.055,4.192 0.291,4.434 0.519,4.68C0.668,4.836 0.807,4.998 0.943,5.166C1.006,5.242 1.049,5.334 1.101,5.42L0,5.42Z" style="fill:rgb(187,189,192);"/>
            </g>
            <g transform="matrix(1,0,0,1,125.502,118.826)">
                <path d="M0,5.42C0.1,5.233 0.236,5.074 0.392,4.924C0.529,4.789 0.627,4.61 0.771,4.473C1.192,4.063 1.568,3.61 2.043,3.252C2.256,3.094 2.418,2.871 2.612,2.666C2.476,2.533 2.35,2.41 2.219,2.293C1.857,1.971 1.488,1.656 1.164,1.295C0.92,1.027 0.639,0.795 0.379,0.541C0.25,0.414 0.121,0.281 0,0.145C-0.033,0.111 -0.041,0.061 -0.072,0C0.301,0 0.648,0 1,0.002C1.025,0.004 1.057,0.025 1.08,0.045C1.508,0.443 1.934,0.844 2.365,1.24C2.617,1.471 2.883,1.686 3.13,1.92C3.316,2.098 3.496,2.289 3.658,2.485C3.766,2.61 3.744,2.672 3.648,2.801C3.434,3.088 3.145,3.303 2.896,3.551C2.668,3.774 2.459,4.008 2.236,4.235C1.889,4.588 1.541,4.94 1.192,5.293C1.156,5.33 1.13,5.377 1.1,5.42L0,5.42Z" style="fill:rgb(187,189,192);"/>
            </g>
            <g transform="matrix(1,0,0,1,104.471,124.227)">
                <path d="M0,-5.422C-0.041,-5.352 -0.07,-5.272 -0.126,-5.217C-0.432,-4.912 -0.748,-4.619 -1.055,-4.315C-1.241,-4.129 -1.414,-3.926 -1.607,-3.74C-1.814,-3.539 -2.041,-3.352 -2.254,-3.156C-2.389,-3.031 -2.527,-2.902 -2.668,-2.77C-2.633,-2.723 -2.607,-2.68 -2.573,-2.647C-2.377,-2.453 -2.18,-2.26 -1.979,-2.072C-1.824,-1.928 -1.654,-1.797 -1.51,-1.647C-1.217,-1.352 -0.934,-1.051 -0.652,-0.75C-0.504,-0.59 -0.359,-0.424 -0.221,-0.256C-0.164,-0.186 -0.125,-0.1 -0.073,-0.008C-0.111,-0.006 -0.135,-0.002 -0.164,-0.002C-0.463,-0.002 -0.76,0 -1.059,-0.004C-1.1,-0.004 -1.15,-0.016 -1.174,-0.041C-1.611,-0.49 -2.045,-0.949 -2.489,-1.395C-2.793,-1.701 -3.111,-1.988 -3.418,-2.291C-3.541,-2.412 -3.654,-2.543 -3.758,-2.682C-3.787,-2.727 -3.785,-2.826 -3.758,-2.879C-3.709,-2.977 -3.635,-3.068 -3.557,-3.145C-3.197,-3.481 -2.836,-3.813 -2.473,-4.143C-2.21,-4.385 -1.945,-4.621 -1.684,-4.863C-1.518,-5.016 -1.359,-5.176 -1.195,-5.332C-1.168,-5.36 -1.146,-5.393 -1.125,-5.422L0,-5.422Z" style="fill:rgb(187,189,192);"/>
            </g>
            <g transform="matrix(1,0,0,1,106.394,124.227)">
                <path d="M0,-5.422C-0.042,-5.352 -0.071,-5.272 -0.129,-5.217C-0.433,-4.912 -0.748,-4.619 -1.056,-4.315C-1.243,-4.129 -1.415,-3.926 -1.606,-3.74C-1.817,-3.539 -2.036,-3.352 -2.255,-3.156C-2.392,-3.031 -2.53,-2.902 -2.671,-2.77C-2.633,-2.723 -2.608,-2.68 -2.573,-2.647C-2.376,-2.453 -2.181,-2.26 -1.979,-2.072C-1.825,-1.928 -1.657,-1.797 -1.509,-1.647C-1.217,-1.352 -0.933,-1.051 -0.653,-0.75C-0.503,-0.59 -0.362,-0.424 -0.224,-0.256C-0.164,-0.186 -0.126,-0.1 -0.073,-0.008C-0.114,-0.006 -0.138,-0.002 -0.164,-0.002C-0.464,-0.002 -0.765,0 -1.058,-0.004C-1.101,-0.004 -1.147,-0.016 -1.175,-0.041C-1.614,-0.49 -2.048,-0.949 -2.489,-1.395C-2.792,-1.701 -3.114,-1.988 -3.419,-2.291C-3.542,-2.412 -3.657,-2.543 -3.757,-2.682C-3.79,-2.727 -3.786,-2.826 -3.759,-2.879C-3.71,-2.977 -3.638,-3.068 -3.558,-3.145C-3.199,-3.481 -2.837,-3.813 -2.474,-4.143C-2.213,-4.385 -1.946,-4.621 -1.683,-4.863C-1.519,-5.016 -1.358,-5.176 -1.198,-5.332C-1.169,-5.36 -1.147,-5.393 -1.124,-5.422L0,-5.422Z" style="fill:rgb(187,189,192);"/>
            </g>
            <g transform="matrix(1,0,0,1,127.422,118.826)">
                <path d="M0,5.42C0.102,5.233 0.238,5.074 0.392,4.924C0.531,4.789 0.631,4.61 0.772,4.473C1.192,4.063 1.57,3.61 2.047,3.252C2.256,3.094 2.42,2.871 2.615,2.666C2.475,2.533 2.352,2.41 2.221,2.293C1.857,1.971 1.492,1.656 1.164,1.295C0.923,1.027 0.641,0.795 0.381,0.541C0.248,0.414 0.123,0.281 0,0.145C-0.031,0.111 -0.045,0.061 -0.07,0C0.303,0 0.652,0 0.998,0.002C1.025,0.004 1.06,0.025 1.082,0.045C1.508,0.443 1.937,0.844 2.368,1.24C2.621,1.471 2.885,1.686 3.132,1.92C3.322,2.098 3.492,2.289 3.664,2.485C3.768,2.61 3.748,2.672 3.652,2.801C3.436,3.088 3.15,3.303 2.895,3.551C2.67,3.774 2.459,4.008 2.238,4.235C1.891,4.588 1.539,4.94 1.192,5.293C1.154,5.33 1.133,5.377 1.102,5.42L0,5.42Z" style="fill:rgb(187,189,192);"/>
            </g>
            <g transform="matrix(1,0,0,1,141.672,118.826)">
                <path d="M0,5.42C-0.027,5.379 -0.049,5.334 -0.084,5.301C-0.309,5.076 -0.533,4.856 -0.751,4.629C-1.041,4.33 -1.317,4.027 -1.604,3.729C-1.693,3.635 -1.791,3.549 -1.887,3.463C-2.127,3.25 -2.365,3.039 -2.563,2.785C-2.633,2.693 -2.648,2.61 -2.584,2.52C-2.506,2.416 -2.432,2.309 -2.336,2.223C-1.834,1.762 -1.326,1.309 -0.82,0.848C-0.537,0.588 -0.266,0.317 0.015,0.053C0.039,0.029 0.074,0.004 0.104,0.004C0.451,0 0.801,0 1.18,0C1.139,0.07 1.119,0.129 1.08,0.168C0.767,0.479 0.441,0.781 0.129,1.092C-0.064,1.283 -0.242,1.492 -0.437,1.68C-0.646,1.883 -0.871,2.07 -1.086,2.266C-1.225,2.391 -1.359,2.52 -1.5,2.65C-1.482,2.678 -1.471,2.699 -1.455,2.717C-1.25,2.957 -1.027,3.178 -0.783,3.379C-0.57,3.555 -0.379,3.756 -0.183,3.951C0.055,4.192 0.289,4.434 0.52,4.68C0.668,4.836 0.809,4.998 0.941,5.166C1.006,5.242 1.049,5.334 1.102,5.42L0,5.42Z" style="fill:rgb(187,189,192);"/>
            </g>
            <g transform="matrix(1,0,0,1,112.006,124.227)">
                <path d="M0,-5.422C-0.041,-5.352 -0.07,-5.272 -0.129,-5.217C-0.432,-4.912 -0.748,-4.619 -1.055,-4.315C-1.244,-4.129 -1.414,-3.926 -1.605,-3.74C-1.814,-3.539 -2.037,-3.352 -2.252,-3.156C-2.392,-3.031 -2.527,-2.902 -2.668,-2.77C-2.633,-2.723 -2.605,-2.68 -2.572,-2.647C-2.377,-2.453 -2.179,-2.26 -1.979,-2.072C-1.825,-1.928 -1.656,-1.797 -1.508,-1.647C-1.216,-1.352 -0.932,-1.051 -0.652,-0.75C-0.502,-0.59 -0.359,-0.424 -0.223,-0.256C-0.164,-0.186 -0.125,-0.1 -0.072,-0.008C-0.108,-0.006 -0.137,-0.002 -0.164,-0.002C-0.462,-0.002 -0.76,0 -1.062,-0.004C-1.1,-0.004 -1.148,-0.016 -1.174,-0.041C-1.612,-0.49 -2.045,-0.949 -2.486,-1.395C-2.793,-1.701 -3.111,-1.988 -3.418,-2.291C-3.541,-2.412 -3.656,-2.543 -3.754,-2.682C-3.787,-2.727 -3.785,-2.826 -3.756,-2.879C-3.709,-2.977 -3.637,-3.068 -3.559,-3.145C-3.199,-3.481 -2.836,-3.813 -2.473,-4.143C-2.213,-4.385 -1.944,-4.621 -1.684,-4.863C-1.517,-5.016 -1.359,-5.176 -1.195,-5.332C-1.168,-5.36 -1.146,-5.393 -1.121,-5.422L0,-5.422Z" style="fill:rgb(187,189,192);"/>
            </g>
            <g transform="matrix(1,0,0,1,113.926,124.227)">
                <path d="M0,-5.422C-0.039,-5.352 -0.066,-5.272 -0.125,-5.217C-0.434,-4.912 -0.748,-4.619 -1.053,-4.315C-1.24,-4.129 -1.412,-3.926 -1.602,-3.74C-1.814,-3.539 -2.035,-3.352 -2.252,-3.156C-2.389,-3.031 -2.523,-2.902 -2.668,-2.77C-2.633,-2.723 -2.605,-2.68 -2.568,-2.647C-2.373,-2.453 -2.176,-2.26 -1.978,-2.072C-1.822,-1.928 -1.652,-1.797 -1.506,-1.647C-1.215,-1.352 -0.934,-1.051 -0.65,-0.75C-0.5,-0.59 -0.359,-0.424 -0.219,-0.256C-0.164,-0.186 -0.123,-0.1 -0.068,-0.008C-0.107,-0.006 -0.135,-0.002 -0.164,-0.002C-0.461,-0.002 -0.76,0 -1.057,-0.004C-1.096,-0.004 -1.146,-0.016 -1.172,-0.041C-1.609,-0.49 -2.045,-0.949 -2.484,-1.395C-2.789,-1.701 -3.109,-1.988 -3.416,-2.291C-3.539,-2.412 -3.652,-2.543 -3.754,-2.682C-3.787,-2.727 -3.783,-2.826 -3.756,-2.879C-3.705,-2.977 -3.635,-3.068 -3.555,-3.145C-3.196,-3.481 -2.834,-3.813 -2.471,-4.143C-2.209,-4.385 -1.944,-4.621 -1.68,-4.863C-1.515,-5.016 -1.355,-5.176 -1.195,-5.332C-1.165,-5.36 -1.146,-5.393 -1.121,-5.422L0,-5.422Z" style="fill:rgb(187,189,192);"/>
            </g>
            <g transform="matrix(1,0,0,1,156.33,118.826)">
                <path d="M0,5.42C0.104,5.233 0.241,5.074 0.393,4.924C0.533,4.789 0.631,4.61 0.773,4.473C1.195,4.063 1.573,3.61 2.047,3.252C2.26,3.094 2.422,2.871 2.617,2.666C2.479,2.533 2.354,2.41 2.225,2.293C1.861,1.971 1.492,1.656 1.168,1.295C0.924,1.027 0.643,0.795 0.383,0.541C0.252,0.414 0.125,0.281 0,0.145C-0.029,0.111 -0.039,0.061 -0.068,0C0.305,0 0.654,0 1,0.002C1.029,0.004 1.062,0.025 1.084,0.045C1.512,0.443 1.94,0.844 2.371,1.24C2.621,1.471 2.887,1.686 3.135,1.92C3.322,2.098 3.5,2.289 3.662,2.485C3.77,2.61 3.752,2.672 3.65,2.801C3.438,3.088 3.15,3.303 2.898,3.551C2.672,3.774 2.463,4.008 2.241,4.235C1.895,4.588 1.543,4.94 1.195,5.293C1.16,5.33 1.135,5.377 1.104,5.42L0,5.42Z" style="fill:rgb(187,189,192);"/>
            </g>
            <g transform="matrix(1,0,0,1,158.254,118.826)">
                <path d="M0,5.42C0.104,5.233 0.238,5.074 0.393,4.924C0.531,4.789 0.631,4.61 0.771,4.473C1.193,4.063 1.57,3.61 2.043,3.252C2.256,3.094 2.42,2.871 2.615,2.666C2.477,2.533 2.354,2.41 2.221,2.293C1.857,1.971 1.492,1.656 1.16,1.295C0.92,1.027 0.641,0.795 0.381,0.541C0.25,0.414 0.123,0.281 0,0.145C-0.029,0.111 -0.041,0.061 -0.067,0C0.303,0 0.65,0 1,0.002C1.025,0.004 1.059,0.025 1.083,0.045C1.51,0.443 1.936,0.844 2.367,1.24C2.619,1.471 2.885,1.686 3.133,1.92C3.318,2.098 3.498,2.289 3.66,2.485C3.77,2.61 3.748,2.672 3.65,2.801C3.437,3.088 3.149,3.303 2.896,3.551C2.67,3.774 2.459,4.008 2.238,4.235C1.891,4.588 1.539,4.94 1.193,5.293C1.156,5.33 1.133,5.377 1.104,5.42L0,5.42Z" style="fill:rgb(187,189,192);"/>
            </g>
            <g transform="matrix(1,0,0,1,129.279,118.812)">
                <path d="M0,5.434C0.059,5.332 0.105,5.221 0.182,5.133C0.371,4.901 0.562,4.666 0.775,4.456C1.195,4.049 1.57,3.598 2.043,3.245C2.256,3.086 2.416,2.862 2.607,2.664C2.145,2.223 1.686,1.801 1.246,1.36C0.811,0.92 0.312,0.539 -0.062,0.043C-0.055,0.034 -0.051,0.024 -0.043,0.014C0.248,0.014 0.539,0.026 0.83,0.01C1,0 1.117,0.063 1.24,0.182C1.575,0.508 1.918,0.821 2.266,1.135C2.654,1.495 3.051,1.85 3.438,2.213C3.531,2.301 3.609,2.407 3.686,2.51C3.748,2.6 3.734,2.684 3.664,2.776C3.467,3.034 3.219,3.239 2.982,3.461C2.73,3.704 2.498,3.961 2.254,4.209C1.9,4.567 1.547,4.924 1.193,5.282C1.15,5.327 1.117,5.383 1.08,5.434L0,5.434Z" style="fill:rgb(187,189,192);"/>
            </g>
            <g transform="matrix(1,0,0,1,131.201,118.812)">
                <path d="M0,5.434C0.059,5.332 0.105,5.221 0.176,5.133C0.371,4.901 0.561,4.666 0.777,4.456C1.193,4.049 1.572,3.598 2.045,3.245C2.258,3.086 2.419,2.862 2.607,2.664C2.145,2.223 1.684,1.801 1.246,1.36C0.809,0.92 0.312,0.539 -0.062,0.043C-0.057,0.034 -0.049,0.024 -0.043,0.014C0.246,0.014 0.537,0.026 0.826,0.01C1.004,0 1.117,0.063 1.238,0.182C1.572,0.508 1.92,0.821 2.264,1.135C2.656,1.495 3.051,1.85 3.439,2.213C3.529,2.301 3.609,2.407 3.686,2.51C3.752,2.6 3.737,2.684 3.662,2.776C3.465,3.034 3.219,3.239 2.982,3.461C2.732,3.704 2.496,3.961 2.254,4.209C1.902,4.567 1.549,4.924 1.193,5.282C1.15,5.327 1.117,5.383 1.078,5.434L0,5.434Z" style="fill:rgb(187,189,192);"/>
            </g>
            <g transform="matrix(1,0,0,1,137.914,118.822)">
                <path d="M0,5.424C-0.033,5.375 -0.064,5.322 -0.105,5.279C-0.324,5.057 -0.551,4.84 -0.768,4.615C-1.055,4.319 -1.332,4.014 -1.621,3.717C-1.709,3.621 -1.814,3.535 -1.908,3.442C-2.131,3.221 -2.355,2.998 -2.574,2.772C-2.674,2.668 -2.684,2.592 -2.592,2.485C-2.425,2.285 -2.256,2.09 -2.068,1.914C-1.701,1.572 -1.312,1.25 -0.939,0.912C-0.652,0.651 -0.369,0.377 -0.088,0.106C-0.014,0.031 0.061,0 0.168,0.002C0.449,0.01 0.732,0.004 1.02,0.004L1.152,0.004C1.113,0.065 1.1,0.114 1.066,0.145C0.752,0.453 0.43,0.758 0.113,1.067C0.027,1.151 -0.055,1.244 -0.141,1.328C-0.463,1.635 -0.785,1.942 -1.109,2.246C-1.244,2.375 -1.381,2.502 -1.523,2.635C-1.476,2.696 -1.439,2.754 -1.391,2.799C-1.207,2.979 -1.019,3.156 -0.832,3.33C-0.678,3.475 -0.51,3.606 -0.36,3.758C-0.07,4.051 0.211,4.352 0.494,4.653C0.643,4.813 0.787,4.977 0.924,5.147C0.989,5.229 1.029,5.33 1.084,5.424L0,5.424Z" style="fill:rgb(187,189,192);"/>
            </g>
            <g transform="matrix(1,0,0,1,139.838,118.822)">
                <path d="M0,5.424C-0.037,5.375 -0.064,5.322 -0.107,5.279C-0.328,5.057 -0.553,4.84 -0.77,4.615C-1.055,4.319 -1.336,4.014 -1.621,3.717C-1.713,3.621 -1.814,3.535 -1.912,3.442C-2.133,3.221 -2.357,2.998 -2.576,2.772C-2.672,2.668 -2.686,2.592 -2.592,2.485C-2.428,2.285 -2.256,2.09 -2.067,1.914C-1.7,1.572 -1.314,1.25 -0.941,0.912C-0.651,0.651 -0.371,0.377 -0.092,0.106C-0.016,0.031 0.059,0 0.164,0.002C0.447,0.01 0.733,0.004 1.017,0.004L1.15,0.004C1.113,0.065 1.096,0.114 1.062,0.145C0.748,0.453 0.426,0.758 0.109,1.067C0.021,1.151 -0.055,1.244 -0.145,1.328C-0.465,1.635 -0.787,1.942 -1.111,2.246C-1.246,2.375 -1.383,2.502 -1.525,2.635C-1.479,2.696 -1.443,2.754 -1.395,2.799C-1.211,2.979 -1.021,3.156 -0.836,3.33C-0.68,3.475 -0.514,3.606 -0.363,3.758C-0.076,4.051 0.207,4.352 0.492,4.653C0.641,4.813 0.785,4.977 0.92,5.147C0.986,5.229 1.025,5.33 1.076,5.424L0,5.424Z" style="fill:rgb(187,189,192);"/>
            </g>
            <g transform="matrix(1,0,0,1,145.451,118.822)">
                <path d="M0,5.424C-0.037,5.375 -0.066,5.322 -0.107,5.279C-0.326,5.057 -0.555,4.84 -0.771,4.615C-1.055,4.319 -1.338,4.014 -1.621,3.717C-1.713,3.621 -1.814,3.535 -1.908,3.442C-2.133,3.221 -2.357,2.998 -2.576,2.772C-2.674,2.668 -2.688,2.592 -2.592,2.485C-2.428,2.285 -2.256,2.09 -2.07,1.914C-1.699,1.572 -1.314,1.25 -0.941,0.912C-0.654,0.651 -0.369,0.377 -0.092,0.106C-0.016,0.031 0.059,0 0.162,0.002C0.449,0.01 0.732,0.004 1.018,0.004L1.15,0.004C1.115,0.065 1.096,0.114 1.062,0.145C0.746,0.453 0.426,0.758 0.111,1.067C0.023,1.151 -0.055,1.244 -0.143,1.328C-0.464,1.635 -0.785,1.942 -1.111,2.246C-1.244,2.375 -1.383,2.502 -1.525,2.635C-1.477,2.696 -1.441,2.754 -1.395,2.799C-1.209,2.979 -1.025,3.156 -0.834,3.33C-0.678,3.475 -0.51,3.606 -0.363,3.758C-0.074,4.051 0.209,4.352 0.492,4.653C0.641,4.813 0.785,4.977 0.922,5.147C0.987,5.229 1.027,5.33 1.08,5.424L0,5.424Z" style="fill:rgb(187,189,192);"/>
            </g>
            <g transform="matrix(1,0,0,1,147.373,118.822)">
                <path d="M0,5.424C-0.035,5.375 -0.066,5.322 -0.109,5.279C-0.328,5.057 -0.553,4.84 -0.77,4.615C-1.055,4.319 -1.336,4.014 -1.621,3.717C-1.713,3.621 -1.816,3.535 -1.912,3.442C-2.133,3.221 -2.359,2.998 -2.576,2.772C-2.676,2.668 -2.686,2.592 -2.594,2.485C-2.43,2.285 -2.26,2.09 -2.068,1.914C-1.701,1.572 -1.314,1.25 -0.943,0.912C-0.652,0.651 -0.371,0.377 -0.094,0.106C-0.014,0.031 0.057,0 0.164,0.002C0.447,0.01 0.734,0.004 1.016,0.004L1.15,0.004C1.114,0.065 1.096,0.114 1.062,0.145C0.747,0.453 0.428,0.758 0.111,1.067C0.023,1.151 -0.055,1.244 -0.143,1.328C-0.465,1.635 -0.787,1.942 -1.111,2.246C-1.246,2.375 -1.383,2.502 -1.527,2.635C-1.478,2.696 -1.443,2.754 -1.395,2.799C-1.213,2.979 -1.023,3.156 -0.834,3.33C-0.68,3.475 -0.514,3.606 -0.363,3.758C-0.076,4.051 0.213,4.352 0.49,4.653C0.641,4.813 0.785,4.977 0.92,5.147C0.986,5.229 1.027,5.33 1.078,5.424L0,5.424Z" style="fill:rgb(187,189,192);"/>
            </g>
            <g transform="matrix(1,0,0,1,84.4551,124.225)">
                <path d="M0,-5.42C0.121,-5.289 0.236,-5.15 0.367,-5.029C0.719,-4.707 1.08,-4.395 1.436,-4.074C1.736,-3.803 2.035,-3.529 2.33,-3.25C2.43,-3.154 2.52,-3.043 2.602,-2.932C2.677,-2.826 2.662,-2.762 2.584,-2.658C2.367,-2.367 2.08,-2.148 1.824,-1.898C1.589,-1.668 1.365,-1.422 1.135,-1.186C0.762,-0.801 0.387,-0.42 0.014,-0.037C-0.004,-0.022 -0.029,-0.002 -0.049,-0.002C-0.389,0 -0.729,0 -1.092,0C-1.025,-0.111 -0.974,-0.213 -0.907,-0.295C-0.712,-0.525 -0.525,-0.762 -0.309,-0.971C0.111,-1.383 0.488,-1.834 0.967,-2.19C1.177,-2.35 1.338,-2.572 1.535,-2.777C1.396,-2.91 1.274,-3.033 1.143,-3.15C0.781,-3.473 0.412,-3.787 0.084,-4.148C-0.162,-4.418 -0.445,-4.654 -0.703,-4.908C-0.834,-5.033 -0.957,-5.164 -1.078,-5.297C-1.109,-5.33 -1.123,-5.379 -1.145,-5.42L0,-5.42Z" style="fill:rgb(187,189,192);"/>
            </g>
            <g transform="matrix(1,0,0,1,86.377,124.225)">
                <path d="M0,-5.42C0.125,-5.289 0.234,-5.15 0.369,-5.029C0.717,-4.707 1.082,-4.395 1.434,-4.074C1.734,-3.803 2.037,-3.529 2.33,-3.25C2.43,-3.154 2.521,-3.043 2.602,-2.932C2.678,-2.826 2.662,-2.762 2.584,-2.658C2.369,-2.367 2.082,-2.148 1.821,-1.898C1.584,-1.668 1.366,-1.422 1.133,-1.186C0.762,-0.801 0.385,-0.42 0.012,-0.037C-0.004,-0.022 -0.031,-0.002 -0.047,-0.002C-0.389,0 -0.73,0 -1.092,0C-1.023,-0.111 -0.977,-0.213 -0.906,-0.295C-0.711,-0.525 -0.523,-0.762 -0.309,-0.971C0.112,-1.383 0.49,-1.834 0.968,-2.19C1.178,-2.35 1.34,-2.572 1.537,-2.777C1.397,-2.91 1.27,-3.033 1.141,-3.15C0.781,-3.473 0.41,-3.787 0.084,-4.148C-0.16,-4.418 -0.443,-4.654 -0.707,-4.908C-0.834,-5.033 -0.957,-5.164 -1.08,-5.297C-1.109,-5.33 -1.123,-5.379 -1.146,-5.42L0,-5.42Z" style="fill:rgb(187,189,192);"/>
            </g>
            <g transform="matrix(1,0,0,1,161.359,119.016)">
                <path d="M0,1.156C0.068,1.224 0.143,1.292 0.212,1.359L0.212,0.182C0.141,0.114 0.064,0.048 -0.008,-0.022C-0.129,-0.141 -0.248,-0.203 -0.418,-0.194C-0.709,-0.178 -1,-0.19 -1.291,-0.19C-1.297,-0.18 -1.305,-0.17 -1.312,-0.16C-0.936,0.336 -0.436,0.716 0,1.156" style="fill:rgb(187,189,192);"/>
            </g>
            <g transform="matrix(1,0,0,1,161.571,124.246)">
                <path d="M0,-1.665C-0.23,-1.438 -0.451,-1.203 -0.683,-0.979C-0.897,-0.768 -1.091,-0.533 -1.28,-0.301C-1.355,-0.213 -1.401,-0.102 -1.46,0L-0.38,0C-0.343,-0.051 -0.31,-0.107 -0.265,-0.152C-0.177,-0.241 -0.089,-0.331 0,-0.42L0,-1.665Z" style="fill:rgb(187,189,192);"/>
            </g>
            <g transform="matrix(1,0,0,1,91.9903,124.225)">
                <path d="M0,-5.42C0.121,-5.289 0.236,-5.15 0.369,-5.029C0.721,-4.707 1.08,-4.395 1.435,-4.074C1.736,-3.803 2.035,-3.529 2.33,-3.25C2.432,-3.154 2.52,-3.043 2.601,-2.932C2.68,-2.826 2.662,-2.762 2.586,-2.658C2.369,-2.367 2.08,-2.148 1.826,-1.898C1.586,-1.668 1.367,-1.422 1.135,-1.186C0.764,-0.801 0.387,-0.42 0.014,-0.037C-0.004,-0.022 -0.029,-0.002 -0.049,-0.002C-0.389,0 -0.729,0 -1.093,0C-1.024,-0.111 -0.977,-0.213 -0.904,-0.295C-0.712,-0.525 -0.524,-0.762 -0.31,-0.971C0.111,-1.383 0.491,-1.834 0.969,-2.19C1.18,-2.35 1.34,-2.572 1.535,-2.777C1.396,-2.91 1.271,-3.033 1.142,-3.15C0.783,-3.473 0.412,-3.787 0.084,-4.147C-0.16,-4.418 -0.445,-4.654 -0.705,-4.908C-0.834,-5.033 -0.957,-5.164 -1.076,-5.297C-1.109,-5.33 -1.123,-5.379 -1.145,-5.42L0,-5.42Z" style="fill:rgb(187,189,192);"/>
            </g>
            <g transform="matrix(1,0,0,1,93.9141,124.225)">
                <path d="M0,-5.42C0.121,-5.289 0.232,-5.15 0.365,-5.029C0.715,-4.707 1.078,-4.395 1.432,-4.074C1.732,-3.803 2.033,-3.529 2.329,-3.25C2.428,-3.154 2.516,-3.043 2.6,-2.932C2.676,-2.826 2.66,-2.762 2.584,-2.658C2.365,-2.367 2.078,-2.148 1.82,-1.898C1.584,-1.668 1.364,-1.422 1.131,-1.186C0.76,-0.801 0.387,-0.42 0.01,-0.037C-0.006,-0.022 -0.033,-0.002 -0.051,-0.002C-0.391,0 -0.733,0 -1.094,0C-1.025,-0.111 -0.979,-0.213 -0.908,-0.295C-0.716,-0.525 -0.525,-0.762 -0.311,-0.971C0.109,-1.383 0.488,-1.834 0.963,-2.19C1.176,-2.35 1.338,-2.572 1.533,-2.777C1.395,-2.91 1.27,-3.033 1.141,-3.15C0.78,-3.473 0.408,-3.787 0.084,-4.147C-0.162,-4.418 -0.445,-4.654 -0.707,-4.908C-0.838,-5.033 -0.959,-5.164 -1.082,-5.297C-1.111,-5.33 -1.124,-5.379 -1.146,-5.42L0,-5.42Z" style="fill:rgb(187,189,192);"/>
            </g>
            <g transform="matrix(1,0,0,1,100.694,124.227)">
                <path d="M0,-5.422C-0.142,-5.256 -0.272,-5.08 -0.425,-4.926C-0.624,-4.725 -0.845,-4.545 -1.048,-4.346C-1.239,-4.158 -1.415,-3.951 -1.606,-3.766C-1.817,-3.563 -2.04,-3.375 -2.255,-3.18C-2.394,-3.055 -2.528,-2.926 -2.669,-2.793C-2.649,-2.764 -2.633,-2.74 -2.618,-2.721C-2.415,-2.483 -2.192,-2.266 -1.951,-2.067C-1.739,-1.891 -1.548,-1.69 -1.353,-1.494C-1.118,-1.256 -0.884,-1.018 -0.655,-0.774C-0.507,-0.615 -0.362,-0.449 -0.226,-0.279C-0.161,-0.201 -0.118,-0.108 -0.054,-0.002L-0.783,-0.002C-1.126,-0.002 -1.126,0 -1.362,-0.246C-1.845,-0.75 -2.321,-1.258 -2.808,-1.758C-2.981,-1.934 -3.177,-2.088 -3.354,-2.262C-3.496,-2.399 -3.626,-2.547 -3.757,-2.695C-3.813,-2.758 -3.813,-2.838 -3.765,-2.904C-3.696,-2.998 -3.633,-3.098 -3.552,-3.176C-3.196,-3.51 -2.835,-3.838 -2.476,-4.166C-2.213,-4.408 -1.944,-4.645 -1.687,-4.887C-1.522,-5.037 -1.364,-5.193 -1.204,-5.35C-1.185,-5.371 -1.167,-5.397 -1.149,-5.422L0,-5.422Z" style="fill:rgb(187,189,192);"/>
            </g>
            <g transform="matrix(1,0,0,1,102.611,124.227)">
                <path d="M0,-5.422C-0.137,-5.256 -0.267,-5.08 -0.42,-4.926C-0.619,-4.725 -0.838,-4.545 -1.043,-4.346C-1.234,-4.158 -1.408,-3.951 -1.602,-3.766C-1.811,-3.563 -2.035,-3.375 -2.252,-3.18C-2.387,-3.055 -2.523,-2.926 -2.664,-2.793C-2.643,-2.764 -2.63,-2.74 -2.609,-2.721C-2.41,-2.483 -2.188,-2.266 -1.945,-2.067C-1.734,-1.891 -1.543,-1.69 -1.35,-1.494C-1.113,-1.256 -0.881,-1.018 -0.65,-0.774C-0.501,-0.615 -0.359,-0.449 -0.221,-0.279C-0.156,-0.201 -0.113,-0.108 -0.05,-0.002L-0.779,-0.002C-1.121,-0.002 -1.122,0 -1.357,-0.246C-1.838,-0.75 -2.318,-1.258 -2.803,-1.758C-2.975,-1.934 -3.172,-2.088 -3.35,-2.262C-3.49,-2.399 -3.621,-2.547 -3.752,-2.695C-3.809,-2.758 -3.807,-2.838 -3.758,-2.904C-3.691,-2.998 -3.63,-3.098 -3.545,-3.176C-3.191,-3.51 -2.832,-3.838 -2.469,-4.166C-2.207,-4.408 -1.941,-4.645 -1.682,-4.887C-1.518,-5.037 -1.359,-5.193 -1.2,-5.35C-1.178,-5.371 -1.16,-5.397 -1.141,-5.422L0,-5.422Z" style="fill:rgb(187,189,192);"/>
            </g>
            <g transform="matrix(1,0,0,1,108.23,124.227)">
                <path d="M0,-5.422C-0.142,-5.256 -0.271,-5.08 -0.425,-4.926C-0.622,-4.725 -0.845,-4.545 -1.049,-4.346C-1.239,-4.158 -1.413,-3.951 -1.606,-3.766C-1.815,-3.563 -2.039,-3.375 -2.255,-3.18C-2.392,-3.055 -2.528,-2.926 -2.668,-2.793C-2.647,-2.764 -2.632,-2.74 -2.615,-2.721C-2.413,-2.483 -2.192,-2.266 -1.95,-2.067C-1.739,-1.891 -1.549,-1.69 -1.353,-1.494C-1.118,-1.256 -0.884,-1.018 -0.655,-0.774C-0.505,-0.615 -0.362,-0.449 -0.226,-0.279C-0.161,-0.201 -0.118,-0.108 -0.056,-0.002L-0.786,-0.002C-1.122,-0.002 -1.126,0 -1.362,-0.246C-1.845,-0.75 -2.321,-1.258 -2.808,-1.758C-2.978,-1.934 -3.177,-2.088 -3.355,-2.262C-3.495,-2.399 -3.626,-2.547 -3.757,-2.695C-3.814,-2.758 -3.81,-2.838 -3.763,-2.904C-3.698,-2.998 -3.636,-3.098 -3.552,-3.176C-3.196,-3.51 -2.835,-3.838 -2.474,-4.166C-2.212,-4.408 -1.946,-4.645 -1.686,-4.887C-1.522,-5.037 -1.366,-5.193 -1.204,-5.35C-1.185,-5.371 -1.163,-5.397 -1.144,-5.422L0,-5.422Z" style="fill:rgb(187,189,192);"/>
            </g>
            <g transform="matrix(1,0,0,1,110.147,124.227)">
                <path d="M0,-5.422C-0.137,-5.256 -0.27,-5.08 -0.42,-4.926C-0.619,-4.725 -0.84,-4.545 -1.043,-4.346C-1.232,-4.158 -1.408,-3.951 -1.602,-3.766C-1.811,-3.563 -2.035,-3.375 -2.249,-3.18C-2.389,-3.055 -2.523,-2.926 -2.665,-2.793C-2.643,-2.764 -2.629,-2.74 -2.611,-2.721C-2.41,-2.483 -2.186,-2.266 -1.945,-2.067C-1.732,-1.891 -1.543,-1.69 -1.35,-1.494C-1.113,-1.256 -0.879,-1.018 -0.654,-0.774C-0.501,-0.615 -0.356,-0.449 -0.221,-0.279C-0.156,-0.201 -0.113,-0.108 -0.053,-0.002L-0.779,-0.002C-1.121,-0.002 -1.121,0 -1.356,-0.246C-1.84,-0.75 -2.316,-1.258 -2.802,-1.758C-2.975,-1.934 -3.172,-2.088 -3.35,-2.262C-3.49,-2.399 -3.621,-2.547 -3.752,-2.695C-3.809,-2.758 -3.807,-2.838 -3.758,-2.904C-3.693,-2.998 -3.629,-3.098 -3.547,-3.176C-3.191,-3.51 -2.828,-3.838 -2.469,-4.166C-2.205,-4.408 -1.939,-4.645 -1.682,-4.887C-1.518,-5.037 -1.359,-5.193 -1.203,-5.35C-1.178,-5.371 -1.16,-5.397 -1.141,-5.422L0,-5.422Z" style="fill:rgb(187,189,192);"/>
            </g>
            <g transform="matrix(1,0,0,1,121.746,118.812)">
                <path d="M0,5.434C0.057,5.332 0.104,5.221 0.178,5.133C0.368,4.901 0.561,4.666 0.773,4.456C1.195,4.049 1.57,3.598 2.041,3.245C2.256,3.086 2.414,2.862 2.605,2.664C2.143,2.223 1.684,1.801 1.244,1.36C0.809,0.92 0.311,0.539 -0.065,0.043C-0.059,0.034 -0.052,0.024 -0.045,0.014C0.244,0.014 0.537,0.026 0.826,0.01C1,0 1.113,0.063 1.238,0.182C1.572,0.508 1.92,0.821 2.262,1.135C2.651,1.495 3.047,1.85 3.435,2.213C3.529,2.301 3.607,2.407 3.684,2.51C3.746,2.6 3.732,2.684 3.665,2.776C3.465,3.034 3.215,3.239 2.98,3.461C2.731,3.704 2.497,3.961 2.252,4.209C1.9,4.567 1.544,4.924 1.191,5.282C1.148,5.327 1.113,5.383 1.078,5.434L0,5.434Z" style="fill:rgb(187,189,192);"/>
            </g>
            <g transform="matrix(1,0,0,1,123.666,118.812)">
                <path d="M0,5.434C0.059,5.332 0.107,5.221 0.179,5.133C0.371,4.901 0.561,4.666 0.777,4.456C1.193,4.049 1.57,3.598 2.045,3.245C2.258,3.086 2.42,2.862 2.608,2.664C2.145,2.223 1.684,1.801 1.248,1.36C0.812,0.92 0.312,0.539 -0.062,0.043C-0.056,0.034 -0.052,0.024 -0.045,0.014C0.248,0.014 0.537,0.026 0.826,0.01C1.004,0 1.117,0.063 1.238,0.182C1.572,0.508 1.92,0.821 2.264,1.135C2.654,1.495 3.047,1.85 3.438,2.213C3.529,2.301 3.609,2.407 3.686,2.51C3.754,2.6 3.734,2.684 3.664,2.776C3.463,3.034 3.215,3.239 2.98,3.461C2.732,3.704 2.5,3.961 2.254,4.209C1.902,4.567 1.547,4.924 1.193,5.282C1.15,5.327 1.117,5.383 1.08,5.434L0,5.434Z" style="fill:rgb(187,189,192);"/>
            </g>
            <g transform="matrix(1,0,0,1,76.5313,124.051)">
                <path d="M0,-5.182C0.104,-5.118 0.221,-5.069 0.307,-4.989C0.645,-4.678 0.973,-4.356 1.307,-4.041C1.479,-3.881 1.66,-3.727 1.832,-3.565C2.004,-3.399 2.17,-3.225 2.342,-3.055C2.43,-2.963 2.525,-2.873 2.615,-2.782C2.721,-2.672 2.73,-2.567 2.649,-2.44C2.629,-2.409 2.614,-2.377 2.586,-2.352C2.342,-2.119 2.097,-1.889 1.851,-1.659C1.726,-1.539 1.605,-1.416 1.482,-1.299C1.252,-1.084 1.017,-0.873 0.787,-0.659C0.639,-0.518 0.494,-0.373 0.344,-0.235C0.262,-0.159 0.18,-0.088 0.09,-0.02C0.068,-0.002 0.031,-0.006 0,0L0,-1.209C0.094,-1.297 0.18,-1.393 0.277,-1.477C0.667,-1.819 1.062,-2.159 1.455,-2.5C1.496,-2.536 1.53,-2.58 1.578,-2.629C1.355,-2.832 1.141,-3.024 0.934,-3.221C0.621,-3.52 0.313,-3.823 0,-4.123L0,-5.182Z" style="fill:rgb(187,189,192);"/>
            </g>
            <g transform="matrix(1,0,0,1,132.842,122.336)">
                <path d="M0,1.91C0.082,1.828 0.156,1.744 0.24,1.668C0.605,1.338 0.975,1.012 1.342,0.685C1.559,0.492 1.775,0.301 1.998,0.111C2.049,0.068 2.111,0.025 2.172,0.012C2.232,0 2.316,0.006 2.365,0.041C2.563,0.191 2.76,0.35 2.943,0.519C3.217,0.769 3.477,1.031 3.744,1.289C3.934,1.473 4.125,1.656 4.316,1.84C4.336,1.859 4.346,1.887 4.363,1.91L3.131,1.91C2.828,1.615 2.527,1.32 2.225,1.025C2.225,1.023 2.219,1.023 2.197,1.017C2.168,1.047 2.139,1.086 2.102,1.121C1.883,1.34 1.66,1.558 1.437,1.779C1.396,1.82 1.355,1.867 1.316,1.91L0,1.91Z" style="fill:rgb(187,189,192);"/>
            </g>
            <g transform="matrix(1,0,0,1,98.836,120.737)">
                <path d="M0,-1.932C-0.141,-1.803 -0.279,-1.676 -0.416,-1.545C-0.625,-1.342 -0.834,-1.135 -1.049,-0.934C-1.207,-0.785 -1.369,-0.649 -1.529,-0.502C-1.686,-0.36 -1.838,-0.215 -1.99,-0.069C-2.062,0 -2.129,-0.006 -2.201,-0.059C-2.246,-0.092 -2.291,-0.123 -2.326,-0.16C-2.551,-0.385 -2.773,-0.608 -2.994,-0.834C-3.332,-1.182 -3.666,-1.532 -4,-1.881C-4.016,-1.897 -4.025,-1.914 -4.039,-1.932L-2.828,-1.932C-2.774,-1.875 -2.725,-1.815 -2.67,-1.762C-2.553,-1.651 -2.412,-1.569 -2.328,-1.424C-2.281,-1.34 -2.207,-1.272 -2.148,-1.203C-1.994,-1.348 -1.871,-1.469 -1.744,-1.582C-1.611,-1.702 -1.477,-1.815 -1.338,-1.932L0,-1.932Z" style="fill:rgb(187,189,192);"/>
            </g>
            <g transform="matrix(1,0,0,1,154.846,121.518)">
                <path d="M0,-0.065C-0.553,-0.588 -1.092,-1.094 -1.609,-1.582C-2.133,-1.094 -2.635,-0.622 -3.148,-0.147C-2.922,0.117 -2.691,0.349 -2.439,0.562C-2.205,0.759 -1.955,0.945 -1.774,1.201C-1.742,1.247 -1.695,1.283 -1.654,1.324C-1.615,1.367 -1.582,1.357 -1.537,1.318C-1.176,0.992 -0.818,0.668 -0.457,0.345C-0.309,0.21 -0.158,0.078 0,-0.065M1.146,-0.032C1.096,0.058 1.055,0.156 0.984,0.22C0.672,0.521 0.346,0.806 0.029,1.107C-0.203,1.328 -0.422,1.568 -0.656,1.789C-0.916,2.035 -1.187,2.269 -1.453,2.509C-1.529,2.582 -1.607,2.572 -1.687,2.517C-1.725,2.49 -1.764,2.462 -1.795,2.429C-2.035,2.191 -2.271,1.951 -2.508,1.708C-2.875,1.335 -3.234,0.955 -3.615,0.593C-3.826,0.388 -4.045,0.195 -4.223,-0.043C-4.274,-0.114 -4.291,-0.188 -4.242,-0.262C-4.18,-0.35 -4.123,-0.442 -4.049,-0.518C-3.836,-0.731 -3.615,-0.94 -3.393,-1.143C-2.982,-1.518 -2.566,-1.889 -2.15,-2.258C-2.029,-2.364 -1.907,-2.461 -1.779,-2.553C-1.648,-2.647 -1.543,-2.639 -1.416,-2.542C-1.155,-2.34 -0.907,-2.133 -0.687,-1.887C-0.516,-1.694 -0.303,-1.53 -0.115,-1.35C0.133,-1.112 0.379,-0.87 0.625,-0.629C0.766,-0.495 0.906,-0.36 1.039,-0.219C1.084,-0.174 1.107,-0.106 1.146,-0.032" style="fill:rgb(187,189,192);"/>
            </g>
            <g transform="matrix(1,0,0,1,113.33,121.598)">
                <path d="M0,-0.248C0.225,0.016 0.455,0.248 0.709,0.461C0.948,0.658 1.197,0.848 1.381,1.107C1.416,1.156 1.461,1.201 1.512,1.232C1.533,1.25 1.594,1.246 1.617,1.227C1.975,0.91 2.328,0.59 2.684,0.272C2.836,0.135 2.988,-0 3.151,-0.143C2.596,-0.666 2.055,-1.178 1.529,-1.674C1.023,-1.203 0.516,-0.728 0,-0.248M4.298,-0.111C4.24,-0.021 4.203,0.076 4.135,0.141C3.816,0.441 3.492,0.727 3.178,1.027C2.944,1.248 2.727,1.488 2.492,1.709C2.236,1.953 1.963,2.184 1.705,2.424C1.641,2.482 1.581,2.492 1.515,2.445C1.444,2.397 1.368,2.348 1.311,2.287C0.99,1.967 0.676,1.643 0.36,1.318C0.131,1.08 -0.096,0.838 -0.328,0.605C-0.453,0.484 -0.6,0.393 -0.719,0.268C-0.857,0.125 -0.984,-0.033 -1.101,-0.195C-1.127,-0.232 -1.117,-0.32 -1.09,-0.365C-1.033,-0.463 -0.963,-0.56 -0.883,-0.639C-0.525,-0.973 -0.164,-1.301 0.197,-1.631C0.46,-1.871 0.721,-2.111 0.986,-2.348C1.109,-2.457 1.238,-2.561 1.373,-2.656C1.49,-2.74 1.584,-2.734 1.697,-2.646C1.957,-2.447 2.213,-2.244 2.431,-1.998C2.607,-1.801 2.816,-1.635 3.01,-1.451C3.264,-1.205 3.52,-0.957 3.773,-0.709C3.913,-0.574 4.055,-0.439 4.187,-0.299C4.231,-0.254 4.256,-0.186 4.298,-0.111" style="fill:rgb(187,189,192);"/>
            </g>
            <g transform="matrix(1,0,0,1,98.8223,122.28)">
                <path d="M0,1.945C-0.389,1.945 -0.777,1.945 -1.162,1.943C-1.194,1.941 -1.234,1.914 -1.261,1.888C-1.469,1.701 -1.676,1.511 -1.879,1.318C-1.963,1.234 -2.043,1.14 -2.132,1.041C-2.19,1.099 -2.234,1.152 -2.283,1.201C-2.529,1.439 -2.774,1.677 -3.02,1.912C-3.039,1.931 -3.076,1.943 -3.106,1.943C-3.506,1.945 -3.908,1.945 -4.315,1.943C-4.315,1.943 -4.324,1.937 -4.354,1.925C-4.213,1.797 -4.086,1.672 -3.951,1.55C-3.52,1.162 -3.086,0.773 -2.65,0.388C-2.535,0.285 -2.414,0.189 -2.289,0.099C-2.152,0 -2.068,0.006 -1.937,0.107C-1.677,0.308 -1.425,0.519 -1.205,0.767C-1.043,0.951 -0.85,1.103 -0.67,1.269C-0.441,1.484 -0.211,1.699 0.018,1.914C0.014,1.923 0.008,1.935 0,1.945" style="fill:rgb(187,189,192);"/>
            </g>
            <g transform="matrix(1,0,0,1,137.195,120.723)">
                <path d="M0,-1.871C-0.137,-1.75 -0.274,-1.633 -0.408,-1.508C-0.619,-1.31 -0.818,-1.107 -1.025,-0.91C-1.189,-0.76 -1.358,-0.615 -1.523,-0.465C-1.676,-0.324 -1.828,-0.184 -1.977,-0.037C-2.057,0.041 -2.129,0.029 -2.205,-0.033C-2.271,-0.088 -2.336,-0.146 -2.395,-0.207C-2.781,-0.607 -3.17,-1.008 -3.555,-1.408C-3.708,-1.564 -3.859,-1.723 -4.018,-1.885C-3.998,-1.889 -3.975,-1.896 -3.953,-1.896C-3.607,-1.896 -3.262,-1.898 -2.916,-1.892C-2.867,-1.892 -2.818,-1.865 -2.775,-1.834C-2.672,-1.756 -2.574,-1.676 -2.482,-1.584C-2.405,-1.51 -2.346,-1.418 -2.281,-1.334C-2.234,-1.277 -2.188,-1.217 -2.15,-1.168C-1.932,-1.365 -1.74,-1.535 -1.555,-1.709C-1.42,-1.834 -1.275,-1.912 -1.078,-1.9C-0.723,-1.883 -0.365,-1.896 -0.012,-1.896C-0.008,-1.889 -0.004,-1.879 0,-1.871" style="fill:rgb(187,189,192);"/>
            </g>
            <g transform="matrix(1,0,0,1,106.975,156.677)">
                <path d="M0,-5.663L-0.057,-5.706L-0.099,-5.751L-0.365,-5.794L-1.008,-5.794L-1.162,-5.749L-1.22,-5.663L-1.22,-4.847L-1.176,-4.745L-1.046,-4.686L-0.059,-4.686L0,-4.716L0,-5.663ZM0,0.857L0,-3.89L-0.63,-3.89C-0.885,-3.89 -1.116,-3.917 -1.33,-3.974C-1.546,-4.03 -1.746,-4.126 -1.932,-4.263C-2.119,-4.397 -2.259,-4.548 -2.347,-4.712C-2.434,-4.876 -2.479,-5.048 -2.479,-5.226C-2.479,-5.386 -2.434,-5.542 -2.347,-5.698C-2.259,-5.853 -2.127,-5.995 -1.954,-6.128C-1.781,-6.259 -1.582,-6.356 -1.36,-6.423C-1.238,-6.45 -1.122,-6.474 -1.008,-6.493C-0.896,-6.513 -0.772,-6.52 -0.63,-6.52C-0.462,-6.52 -0.343,-6.517 -0.267,-6.507C-0.192,-6.497 -0.061,-6.466 0.125,-6.409C0.312,-6.353 0.489,-6.267 0.657,-6.149C0.826,-6.032 0.954,-5.893 1.049,-5.733C1.143,-5.575 1.189,-5.405 1.189,-5.228L1.189,0.857L0,0.857Z" style="fill:rgb(35,31,32);fill-rule:nonzero;"/>
            </g>
            <g transform="matrix(1,0,0,1,108.123,216.338)">
                <path d="M0,1.043C-0.113,1.184 -0.274,1.309 -0.483,1.422C-0.694,1.533 -0.933,1.623 -1.198,1.688C-1.464,1.754 -1.756,1.787 -2.074,1.787L-0.666,3.727L-1.54,4.311L-3.697,1.479L-2.984,0.807L-1.877,1.045L-1.485,1.045C-1.345,1.025 -1.233,1 -1.149,0.967C-1.066,0.934 -1.005,0.898 -0.968,0.861L-0.884,0.676L-0.884,-2.143C-0.911,-2.209 -0.935,-2.252 -0.952,-2.271C-0.999,-2.318 -1.066,-2.361 -1.149,-2.398L-1.22,-2.412L-1.291,-2.441L-1.358,-2.441L-1.429,-2.469L-2.172,-2.469C-2.274,-2.469 -2.365,-2.453 -2.445,-2.418C-2.525,-2.385 -2.588,-2.344 -2.634,-2.297L-2.689,-2.125L-2.689,-0.803L-3.753,-0.803L-3.753,-2.113C-3.753,-2.264 -3.704,-2.404 -3.607,-2.535C-3.509,-2.666 -3.366,-2.791 -3.18,-2.908C-2.994,-3.025 -2.814,-3.105 -2.641,-3.148C-2.468,-3.189 -2.322,-3.221 -2.198,-3.238C-2.078,-3.258 -1.946,-3.268 -1.809,-3.268C-1.536,-3.268 -1.285,-3.238 -1.052,-3.184C-0.817,-3.127 -0.607,-3.043 -0.415,-2.93C-0.225,-2.818 -0.082,-2.691 0.013,-2.551C0.059,-2.486 0.096,-2.416 0.125,-2.34C0.152,-2.266 0.167,-2.185 0.167,-2.102L0.167,0.523C0.167,0.701 0.11,0.873 0,1.043" style="fill:rgb(35,31,32);fill-rule:nonzero;"/>
            </g>
            <g transform="matrix(1,0,0,1,108.156,278.594)">
                <path d="M0,2.557C-0.084,2.688 -0.215,2.814 -0.393,2.935C-0.441,2.963 -0.508,3 -0.596,3.047C-0.685,3.094 -0.815,3.15 -0.982,3.215C-1.197,3.272 -1.434,3.299 -1.685,3.299L-0.476,4.667L-1.33,5.225L-3.611,2.722L-2.941,2.022L-2.366,2.498L-1.304,2.498L-1.176,2.455L-1.008,2.355C-0.962,2.327 -0.934,2.284 -0.924,2.226L-0.924,1.008L-1.008,0.879C-1.045,0.823 -1.119,0.775 -1.233,0.737L-1.596,0.664L-1.945,0.636L-2.731,0.636L-2.731,-0.036L-1.556,-0.036C-1.414,-0.054 -1.301,-0.08 -1.211,-0.113C-1.123,-0.145 -1.056,-0.185 -1.008,-0.232C-0.962,-0.278 -0.934,-0.335 -0.924,-0.4L-0.924,-1.66L-0.994,-1.73L-1.176,-1.8L-1.821,-1.883L-2.197,-1.883L-2.479,-1.8C-2.563,-1.8 -2.627,-1.781 -2.675,-1.744L-2.731,-1.646L-2.731,-0.624L-3.779,-0.624L-3.779,-1.512C-3.779,-1.662 -3.737,-1.803 -3.646,-1.935C-3.56,-2.066 -3.419,-2.191 -3.228,-2.308C-3.035,-2.425 -2.853,-2.505 -2.675,-2.547C-2.496,-2.59 -2.35,-2.621 -2.228,-2.639C-2.105,-2.659 -1.976,-2.668 -1.835,-2.668C-1.562,-2.668 -1.311,-2.639 -1.078,-2.584C-0.844,-2.527 -0.633,-2.442 -0.441,-2.33C-0.251,-2.217 -0.108,-2.087 -0.015,-1.936C0.08,-1.786 0.126,-1.641 0.126,-1.501L0.126,-0.418C0.126,-0.276 0.095,-0.145 0.035,-0.023C-0.025,0.099 -0.126,0.216 -0.266,0.329C-0.136,0.412 -0.042,0.513 0.014,0.629C0.07,0.746 0.107,0.879 0.126,1.029L0.126,2.108C0.126,2.248 0.084,2.398 0,2.557" style="fill:rgb(35,31,32);fill-rule:nonzero;"/>
            </g>
            <g transform="matrix(1,0,0,1,94.4785,168.549)">
                <path d="M0,4.818L-4.818,4.818L0,0L0,4.818ZM1.258,-1.841L-6.074,-1.841C-7.633,-1.841 -8.908,-0.566 -8.908,0.994L-8.908,3.824C-8.908,5.383 -7.633,6.659 -6.074,6.659L1.258,6.659C2.816,6.659 4.092,5.383 4.092,3.824L4.092,0.994C4.092,-0.566 2.816,-1.841 1.258,-1.841" style="fill:rgb(108,110,112);fill-rule:nonzero;"/>
            </g>
            <g transform="matrix(1,0,0,1,95.3281,136.983)">
                <path d="M0,0.036L-3.273,0.036L0,-3.259L0,0.036ZM-6.518,0.001L-3.244,0.001L-6.518,3.296L-6.518,0.001ZM0.408,-4.232L-6.924,-4.232C-8.482,-4.232 -9.758,-2.956 -9.758,-1.397L-9.758,1.433C-9.758,2.993 -8.482,4.268 -6.924,4.268L0.408,4.268C1.967,4.268 3.242,2.993 3.242,1.433L3.242,-1.397C3.242,-2.956 1.967,-4.232 0.408,-4.232" style="fill:rgb(108,110,112);fill-rule:nonzero;"/>
            </g>
            <g transform="matrix(1,0,0,1,94.4785,231.429)">
                <path d="M0,4.818L-4.818,4.818L0,0L0,4.818ZM1.258,-1.841L-6.074,-1.841C-7.633,-1.841 -8.908,-0.566 -8.908,0.994L-8.908,3.824C-8.908,5.383 -7.633,6.659 -6.074,6.659L1.258,6.659C2.816,6.659 4.092,5.383 4.092,3.824L4.092,0.994C4.092,-0.566 2.816,-1.841 1.258,-1.841" style="fill:rgb(108,110,112);fill-rule:nonzero;"/>
            </g>
            <g transform="matrix(1,0,0,1,95.3281,199.862)">
                <path d="M0,0.036L-3.273,0.036L0,-3.259L0,0.036ZM-6.518,0.001L-3.244,0.001L-6.518,3.296L-6.518,0.001ZM0.408,-4.232L-6.924,-4.232C-8.482,-4.232 -9.758,-2.956 -9.758,-1.397L-9.758,1.433C-9.758,2.993 -8.482,4.268 -6.924,4.268L0.408,4.268C1.967,4.268 3.242,2.993 3.242,1.433L3.242,-1.397C3.242,-2.956 1.967,-4.232 0.408,-4.232" style="fill:rgb(108,110,112);fill-rule:nonzero;"/>
            </g>
            <g transform="matrix(1,0,0,1,94.4785,294.443)">
                <path d="M0,4.818L-4.818,4.818L0,0L0,4.818ZM1.258,-1.841L-6.074,-1.841C-7.633,-1.841 -8.908,-0.566 -8.908,0.994L-8.908,3.824C-8.908,5.383 -7.633,6.659 -6.074,6.659L1.258,6.659C2.816,6.659 4.092,5.383 4.092,3.824L4.092,0.994C4.092,-0.566 2.816,-1.841 1.258,-1.841" style="fill:rgb(108,110,112);fill-rule:nonzero;"/>
            </g>
            <g transform="matrix(1,0,0,1,95.3281,262.876)">
                <path d="M0,0.036L-3.273,0.036L0,-3.259L0,0.036ZM-6.518,0.001L-3.244,0.001L-6.518,3.296L-6.518,0.001ZM0.408,-4.232L-6.924,-4.232C-8.482,-4.232 -9.758,-2.956 -9.758,-1.397L-9.758,1.433C-9.758,2.993 -8.482,4.268 -6.924,4.268L0.408,4.268C1.967,4.268 3.242,2.993 3.242,1.433L3.242,-1.397C3.242,-2.956 1.967,-4.232 0.408,-4.232" style="fill:rgb(108,110,112);fill-rule:nonzero;"/>
            </g>
            <g transform="matrix(1,0,0,1,119.51,332.767)">
                <path d="M0,-5.664L-0.055,-5.707L-0.098,-5.751L-0.363,-5.794L-1.008,-5.794L-1.161,-5.75L-1.217,-5.663L-1.217,-4.848L-1.174,-4.746L-1.045,-4.687L-0.057,-4.687L0,-4.716L0,-5.664ZM0,0.857L0,-3.89L-0.629,-3.89C-0.881,-3.89 -1.115,-3.918 -1.33,-3.973C-1.545,-4.03 -1.744,-4.127 -1.932,-4.263C-2.119,-4.398 -2.256,-4.549 -2.344,-4.713C-2.434,-4.877 -2.479,-5.049 -2.479,-5.227C-2.479,-5.386 -2.434,-5.543 -2.344,-5.698C-2.256,-5.853 -2.125,-5.996 -1.952,-6.128C-1.779,-6.259 -1.582,-6.357 -1.357,-6.423C-1.236,-6.451 -1.119,-6.475 -1.008,-6.493C-0.896,-6.513 -0.77,-6.521 -0.629,-6.521C-0.461,-6.521 -0.34,-6.516 -0.266,-6.508C-0.191,-6.498 -0.061,-6.466 0.127,-6.409C0.312,-6.353 0.49,-6.266 0.658,-6.149C0.826,-6.032 0.957,-5.893 1.051,-5.734C1.144,-5.575 1.189,-5.406 1.189,-5.228L1.189,0.857L0,0.857Z" style="fill:rgb(35,31,32);fill-rule:nonzero;"/>
            </g>
            <g transform="matrix(1,0,0,1,121.387,363.537)">
                <path d="M0,1.041C-0.112,1.182 -0.273,1.308 -0.483,1.42C-0.693,1.532 -0.932,1.621 -1.197,1.687C-1.463,1.752 -1.755,1.785 -2.072,1.785L-0.664,3.726L-1.541,4.309L-3.696,1.478L-2.982,0.806L-1.877,1.043L-1.484,1.043C-1.344,1.024 -1.232,0.998 -1.148,0.966C-1.064,0.933 -1.004,0.896 -0.967,0.859L-0.883,0.675L-0.883,-2.145C-0.91,-2.211 -0.934,-2.254 -0.953,-2.272C-1,-2.319 -1.064,-2.362 -1.148,-2.399L-1.219,-2.414L-1.289,-2.442L-1.359,-2.442L-1.428,-2.471L-2.17,-2.471C-2.273,-2.471 -2.364,-2.454 -2.443,-2.42C-2.523,-2.387 -2.586,-2.346 -2.633,-2.299L-2.688,-2.126L-2.688,-0.805L-3.752,-0.805L-3.752,-2.114C-3.752,-2.265 -3.703,-2.405 -3.605,-2.536C-3.508,-2.668 -3.365,-2.792 -3.178,-2.909C-2.992,-3.026 -2.813,-3.106 -2.639,-3.149C-2.467,-3.191 -2.32,-3.222 -2.198,-3.24C-2.077,-3.26 -1.947,-3.268 -1.807,-3.268C-1.535,-3.268 -1.283,-3.24 -1.051,-3.185C-0.817,-3.128 -0.605,-3.044 -0.414,-2.932C-0.223,-2.819 -0.08,-2.693 0.014,-2.553C0.061,-2.487 0.098,-2.417 0.125,-2.342C0.154,-2.268 0.168,-2.188 0.168,-2.104L0.168,0.521C0.168,0.699 0.111,0.872 0,1.041" style="fill:rgb(35,31,32);fill-rule:nonzero;"/>
            </g>
            <g transform="matrix(1,0,0,1,120.818,396.847)">
                <path d="M0,2.557C-0.084,2.688 -0.215,2.814 -0.393,2.935C-0.439,2.963 -0.508,3 -0.596,3.047C-0.686,3.094 -0.812,3.15 -0.982,3.215C-1.195,3.272 -1.43,3.299 -1.683,3.299L-0.474,4.667L-1.329,5.225L-3.611,2.722L-2.939,2.022L-2.365,2.498L-1.301,2.498L-1.176,2.455L-1.008,2.355C-0.961,2.327 -0.934,2.284 -0.924,2.226L-0.924,1.008L-1.008,0.879C-1.045,0.823 -1.119,0.775 -1.23,0.737L-1.596,0.664L-1.945,0.636L-2.729,0.636L-2.729,-0.036L-1.553,-0.036C-1.414,-0.054 -1.299,-0.08 -1.211,-0.113C-1.121,-0.145 -1.054,-0.185 -1.008,-0.232C-0.961,-0.278 -0.934,-0.335 -0.924,-0.4L-0.924,-1.66L-0.994,-1.73L-1.176,-1.799L-1.818,-1.883L-2.197,-1.883L-2.477,-1.799C-2.561,-1.799 -2.627,-1.781 -2.673,-1.744L-2.729,-1.646L-2.729,-0.624L-3.779,-0.624L-3.779,-1.512C-3.779,-1.662 -3.734,-1.803 -3.646,-1.935C-3.558,-2.066 -3.418,-2.191 -3.227,-2.308C-3.035,-2.425 -2.851,-2.505 -2.673,-2.547C-2.496,-2.59 -2.347,-2.621 -2.225,-2.639C-2.104,-2.659 -1.973,-2.668 -1.833,-2.668C-1.562,-2.668 -1.311,-2.639 -1.078,-2.584C-0.844,-2.527 -0.631,-2.442 -0.439,-2.33C-0.249,-2.217 -0.107,-2.086 -0.014,-1.936C0.08,-1.786 0.127,-1.641 0.127,-1.501L0.127,-0.418C0.127,-0.276 0.098,-0.145 0.036,-0.023C-0.025,0.099 -0.125,0.216 -0.266,0.328C-0.135,0.412 -0.041,0.513 0.016,0.629C0.07,0.746 0.107,0.879 0.127,1.029L0.127,2.108C0.127,2.248 0.084,2.398 0,2.557" style="fill:rgb(35,31,32);fill-rule:nonzero;"/>
            </g>
        </g>
        <g id="cut-lines" serif:id="cut lines" transform="matrix(4.16667,0,0,4.16667,0,0)">
            <g transform="matrix(0,1,1,0,97.7894,445.757)">
                <path d="M4.537,-4.536C7.041,-4.536 9.072,-2.505 9.072,0.002C9.072,2.506 7.041,4.537 4.537,4.537C2.031,4.537 0.001,2.506 0.001,0.002C0.001,-2.505 2.031,-4.536 4.537,-4.536" style="fill:none;fill-rule:nonzero;stroke:rgb(238,50,43);stroke-width:0.28px;"/>
            </g>
            <g transform="matrix(0,1,1,0,97.7904,98.5124)">
                <path d="M4.536,-4.537C7.042,-4.537 9.072,-2.506 9.072,0C9.072,2.505 7.042,4.536 4.536,4.536C2.032,4.536 0.001,2.505 0.001,0C0.001,-2.506 2.032,-4.537 4.536,-4.537" style="fill:none;fill-rule:nonzero;stroke:rgb(238,50,43);stroke-width:0.28px;"/>
            </g>
            <g transform="matrix(1,0,0,1,0,14.758)">
                <rect x="76.531" y="79.786" width="85.039" height="364.252" style="fill:none;stroke:rgb(238,50,43);stroke-width:0.28px;"/>
            </g>
            <g transform="matrix(0,1,1,0,96.5472,400.545)">
                <path d="M8.929,-8.928C13.861,-8.928 17.858,-4.93 17.858,0.001C17.858,4.931 13.861,8.929 8.929,8.929C3.997,8.929 -0.001,4.931 -0.001,0.001C-0.001,-4.93 3.997,-8.928 8.929,-8.928" style="fill:none;fill-rule:nonzero;stroke:rgb(238,50,43);stroke-width:0.28px;"/>
            </g>
            <g transform="matrix(0,1,1,0,96.5467,366.33)">
                <path d="M8.93,-8.928C13.861,-8.928 17.858,-4.93 17.858,0.001C17.858,4.932 13.861,8.93 8.93,8.93C3.998,8.93 -0,4.932 -0,0.001C-0,-4.93 3.998,-8.928 8.93,-8.928" style="fill:none;fill-rule:nonzero;stroke:rgb(238,50,43);stroke-width:0.28px;"/>
            </g>
            <g transform="matrix(0,1,1,0,96.5472,332.116)">
                <path d="M8.929,-8.928C13.861,-8.928 17.858,-4.93 17.858,0.001C17.858,4.931 13.861,8.929 8.929,8.929C3.998,8.929 -0.001,4.931 -0.001,0.001C-0.001,-4.93 3.998,-8.928 8.929,-8.928" style="fill:none;fill-rule:nonzero;stroke:rgb(238,50,43);stroke-width:0.28px;"/>
            </g>
            <g transform="matrix(0,1,1,0,141.562,332.115)">
                <path d="M8.93,-8.929C13.862,-8.929 17.859,-4.93 17.859,0.001C17.859,4.932 13.862,8.93 8.93,8.93C3.999,8.93 0,4.932 0,0.001C0,-4.93 3.999,-8.929 8.93,-8.929" style="fill:none;fill-rule:nonzero;stroke:rgb(238,50,43);stroke-width:0.28px;"/>
            </g>
            <g transform="matrix(0,1,1,0,141.561,366.329)">
                <path d="M8.931,-8.929C13.862,-8.929 17.859,-4.93 17.859,0.001C17.859,4.932 13.862,8.931 8.931,8.931C3.999,8.931 0.001,4.932 0.001,0.001C0.001,-4.93 3.999,-8.929 8.931,-8.929" style="fill:none;fill-rule:nonzero;stroke:rgb(238,50,43);stroke-width:0.28px;"/>
            </g>
            <g transform="matrix(0,1,1,0,141.562,400.544)">
                <path d="M8.93,-8.929C13.862,-8.929 17.859,-4.93 17.859,0.001C17.859,4.932 13.862,8.93 8.93,8.93C3.998,8.93 0,4.932 0,0.001C0,-4.93 3.998,-8.929 8.93,-8.929" style="fill:none;fill-rule:nonzero;stroke:rgb(238,50,43);stroke-width:0.28px;"/>
            </g>
            <g transform="matrix(0,1,1,0,119.055,405.222)">
                <path d="M4.252,-4.252C6.6,-4.252 8.504,-2.347 8.504,0.001C8.504,2.348 6.6,4.252 4.252,4.252C1.903,4.252 0,2.348 0,0.001C0,-2.347 1.903,-4.252 4.252,-4.252" style="fill:none;fill-rule:nonzero;stroke:rgb(238,50,43);stroke-width:0.28px;"/>
            </g>
            <g transform="matrix(0,1,1,0,119.054,371.007)">
                <path d="M4.253,-4.251C6.601,-4.251 8.504,-2.346 8.504,0.002C8.504,2.349 6.601,4.253 4.253,4.253C1.904,4.253 0,2.349 0,0.002C0,-2.346 1.904,-4.251 4.253,-4.251" style="fill:none;fill-rule:nonzero;stroke:rgb(238,50,43);stroke-width:0.28px;"/>
            </g>
            <g transform="matrix(0,1,1,0,119.055,336.793)">
                <path d="M4.252,-4.252C6.601,-4.252 8.504,-2.347 8.504,0.001C8.504,2.348 6.601,4.252 4.252,4.252C1.904,4.252 0,2.348 0,0.001C0,-2.347 1.904,-4.252 4.252,-4.252" style="fill:none;fill-rule:nonzero;stroke:rgb(238,50,43);stroke-width:0.28px;"/>
            </g>
            <g transform="matrix(0,1,1,0,133.455,269.244)">
                <path d="M10.629,-10.629C16.5,-10.629 21.259,-5.869 21.259,0.002C21.259,5.871 16.5,10.629 10.629,10.629C4.759,10.629 -0.001,5.871 -0.001,0.002C-0.001,-5.869 4.759,-10.629 10.629,-10.629" style="fill:none;fill-rule:nonzero;stroke:rgb(238,50,43);stroke-width:0.28px;"/>
            </g>
            <g transform="matrix(0,1,1,0,133.456,206.23)">
                <path d="M10.628,-10.63C16.5,-10.63 21.259,-5.87 21.259,0.001C21.259,5.87 16.5,10.628 10.628,10.628C4.758,10.628 -0.001,5.87 -0.001,0.001C-0.001,-5.87 4.758,-10.63 10.628,-10.63" style="fill:none;fill-rule:nonzero;stroke:rgb(238,50,43);stroke-width:0.28px;"/>
            </g>
            <g transform="matrix(0,1,1,0,133.455,143.216)">
                <path d="M10.629,-10.629C16.5,-10.629 21.259,-5.869 21.259,0.002C21.259,5.871 16.5,10.629 10.629,10.629C4.759,10.629 -0.001,5.871 -0.001,0.002C-0.001,-5.869 4.759,-10.629 10.629,-10.629" style="fill:none;fill-rule:nonzero;stroke:rgb(238,50,43);stroke-width:0.28px;"/>
            </g>
            <g transform="matrix(1,0,0,1,0,-230.892)">
                <rect x="85.266" y="374.249" width="13.607" height="20.976" style="fill:none;stroke:rgb(238,50,43);stroke-width:0.28px;"/>
            </g>
            <g transform="matrix(1,0,0,1,0,-104.863)">
                <rect x="85.266" y="311.234" width="13.607" height="20.977" style="fill:none;stroke:rgb(238,50,43);stroke-width:0.28px;"/>
            </g>
            <g transform="matrix(1,0,0,1,0,21.165)">
                <rect x="85.266" y="248.22" width="13.607" height="20.977" style="fill:none;stroke:rgb(238,50,43);stroke-width:0.28px;"/>
            </g>
        </g>
    </g>
</svg>
